<svg width="22" height="19" viewBox="0 0 22 19" fill="none" xmlns="http://www.w3.org/2000/svg" style="margin-right:5px">
                               <path d="M1.01958 1.01087C4.10939 6.84959 7.19614 12.683 10.2912 18.5187C10.3563 18.6443 10.3842 18.8271 10.5933 18.8443C10.6459 18.796 10.7121 18.7469 10.7504 18.6857C11.017 18.2609 11.2836 17.8362 11.5502 17.4115C11.7849 17.0408 12.0143 16.6732 12.249 16.3025C13.0637 15.0055 13.8783 13.7085 14.6971 12.4126C14.7821 12.2745 14.865 12.1447 14.813 11.9688C14.8393 11.6977 14.7434 11.4514 14.6716 11.1982C14.4432 10.3856 14.2284 9.5723 13.9906 8.76164C13.9906 8.76164 13.9917 8.75745 13.9875 8.75631C13.8967 8.43951 13.9341 8.19397 14.2278 8.02357C14.3029 8.00839 14.3781 7.9932 14.4532 7.97802C15.4792 7.78061 16.5062 7.57902 17.5055 7.26207C17.7524 7.16855 17.8169 6.9215 17.9432 6.72741C18.5389 5.79196 19.1293 4.85955 19.7209 3.92295C19.9693 3.53363 20.2136 3.14316 20.4621 2.75383C20.6225 2.49732 20.7859 2.24614 20.9452 1.99382C21.2639 1.48918 21.5587 0.973485 21.8511 0.484056C21.6877 0.30884 21.552 0.334269 21.427 0.335723C19.5391 0.358284 17.6552 0.381991 15.7699 0.360392C12.9882 0.329541 10.2091 0.425088 7.43071 0.466954C7.32759 0.469943 7.21923 0.475972 7.11415 0.469442C5.09645 0.290157 3.08196 0.524702 1.0649 0.462295C0.979482 0.465674 0.85539 0.480835 0.807104 0.512407C0.819984 0.565333 0.979837 0.941559 1.01958 1.01087Z" fill="#005A8D"/>
                           </svg>