<svg width="70" height="70" viewBox="0 0 70 70" fill="none" xmlns="http://www.w3.org/2000/svg">
<rect x="9.83203" y="16.2578" width="44.0584" height="46.4187" transform="rotate(-7.94839 9.83203 16.2578)" fill="white"/>
<path d="M61.6907 6.5123L68.3582 54.2661C68.8603 57.8626 66.352 61.1851 62.7555 61.6872L15.0017 68.3547C11.4052 68.8568 8.08275 66.3485 7.58061 62.752L0.913111 14.9982C0.410965 11.4018 2.91933 8.07927 6.51579 7.57712L54.2696 0.909626C57.8661 0.40748 61.1885 2.91585 61.6907 6.5123ZM47.4055 15.1457L43.0642 15.7518C41.8654 15.9192 41.0293 17.0266 41.1967 18.2255L42.712 29.0786L25.347 31.5032L23.8317 20.65C23.6643 19.4512 22.5568 18.6151 21.358 18.7825L17.0167 19.3886C15.8178 19.556 14.9818 20.6634 15.1492 21.8623L19.3921 52.2511C19.5595 53.45 20.6669 54.2861 21.8658 54.1187L26.2071 53.5125C27.4059 53.3451 28.242 52.2377 28.0746 51.0388L26.5593 40.1857L43.9243 37.7611L45.4396 48.6143C45.607 49.8132 46.7145 50.6492 47.9133 50.4818L52.2546 49.8757C53.4535 49.7083 54.2895 48.6009 54.1221 47.402L49.8792 17.0132C49.7118 15.8144 48.6044 14.9783 47.4055 15.1457Z" fill="#005A8D"/>
</svg>
