<svg width="19" height="30" viewBox="0 0 19 30" fill="none" xmlns="http://www.w3.org/2000/svg" style="margin-right:5px">
                               <path d="M14.5778 13.1795C12.3299 9.19778 10.0843 5.21967 7.83276 1.24016C7.78537 1.15442 7.76313 1.02823 7.61662 1.02102C7.5805 1.05575 7.53491 1.09131 7.50906 1.1347C7.32883 1.43552 7.1486 1.73634 6.96838 2.03716C6.80967 2.29975 6.65459 2.5601 6.49588 2.82269C5.94514 3.74133 5.3944 4.65996 4.84073 5.5779C4.78331 5.67571 4.72729 5.76766 4.76624 5.88856C4.75188 6.07726 4.82258 6.24606 4.87658 6.42015C5.04835 6.97887 5.21066 7.53841 5.38898 8.09559C5.38898 8.09559 5.38827 8.09852 5.39119 8.09922C5.45942 8.31701 5.43689 8.48826 5.23398 8.6132C5.18163 8.62545 5.12927 8.63769 5.07692 8.64994C4.36212 8.81027 3.64661 8.97353 2.9522 9.21623C2.78087 9.28675 2.73942 9.45966 2.65392 9.59723C2.25102 10.26 1.85174 10.9205 1.45175 11.5839C1.28369 11.8598 1.11855 12.1363 0.950485 12.4122C0.842067 12.5938 0.731436 12.7719 0.623721 12.9506C0.408291 13.308 0.209674 13.6726 0.0123607 14.0189C0.129247 14.1368 0.223785 14.1161 0.311184 14.1122C1.63163 14.0536 2.94915 13.9943 4.26841 13.9665C6.21487 13.9246 8.15764 13.7951 10.1007 13.7028C10.1728 13.6984 10.2486 13.6917 10.3222 13.6939C11.7363 13.7724 13.1422 13.5638 14.5542 13.5613C14.6139 13.557 14.7005 13.5436 14.7338 13.5206C14.724 13.4842 14.6066 13.2267 14.5778 13.1795Z" fill="#005A8D"/>
                               <path d="M3.4245 16.5184C5.56607 20.5583 7.70552 24.5945 9.85077 28.6323C9.89587 28.7192 9.91476 28.846 10.061 28.857C10.0981 28.8233 10.1446 28.7889 10.1716 28.7462C10.3597 28.4503 10.5478 28.1544 10.736 27.8584C10.9016 27.6001 11.0635 27.344 11.2291 27.0857C11.804 26.182 12.3789 25.2783 12.9567 24.3753C13.0167 24.2791 13.0751 24.1886 13.0394 24.0667C13.0587 23.8785 12.9925 23.7079 12.9432 23.5324C12.7863 22.9693 12.6388 22.4057 12.4754 21.844C12.4754 21.844 12.4761 21.8411 12.4732 21.8403C12.4108 21.6208 12.4379 21.4502 12.644 21.3307C12.6967 21.3198 12.7493 21.309 12.802 21.2981C13.5208 21.1568 14.2404 21.0125 14.941 20.7883C15.1141 20.7224 15.1601 20.5506 15.2492 20.4153C15.6696 19.7635 16.0862 19.1138 16.5036 18.4612C16.6789 18.1899 16.8514 17.9178 17.0267 17.6465C17.1399 17.4678 17.2552 17.2928 17.3676 17.117C17.5924 16.7653 17.8006 16.4061 18.007 16.0652C17.8933 15.9442 17.7983 15.9625 17.7108 15.964C16.3893 15.9876 15.0706 16.012 13.7511 16.0049C11.8042 15.9951 9.85869 16.0731 7.91383 16.1139C7.84164 16.1164 7.76577 16.121 7.69225 16.1169C6.28064 16.001 4.86979 16.1722 3.4582 16.1374C3.3984 16.1401 3.31149 16.1511 3.27758 16.1732C3.2864 16.2099 3.39693 16.4704 3.4245 16.5184Z" fill="#005A8D"/>
                           </svg>