<svg width="22" height="20" viewBox="0 0 22 20" fill="none" xmlns="http://www.w3.org/2000/svg" style="margin-right:5px">
                               <path d="M20.8226 18.0798C17.5817 12.3252 14.3441 6.57583 11.0981 0.824382C11.0298 0.700486 10.9971 0.518525 10.7877 0.506876C10.7363 0.556595 10.6714 0.607428 10.6348 0.669709C10.3795 1.10146 10.1241 1.53322 9.86875 1.96497C9.64388 2.34184 9.42417 2.71553 9.19929 3.0924C8.41899 4.41088 7.63869 5.72937 6.85421 7.04682C6.77286 7.18722 6.69348 7.31917 6.75002 7.49366C6.73086 7.76534 6.83311 8.00909 6.91153 8.26032C7.16102 9.06657 7.397 9.87393 7.65584 10.678C7.65584 10.678 7.65485 10.6823 7.65903 10.6833C7.75809 10.9976 7.72714 11.2441 7.43811 11.4223C7.36339 11.4395 7.28867 11.4567 7.21395 11.4738C6.19373 11.6987 5.17252 11.9277 4.18204 12.2713C3.93774 12.3714 3.87975 12.6201 3.75859 12.8175C3.18768 13.7687 2.62193 14.7167 2.05519 15.6689C1.81705 16.0648 1.58308 16.4617 1.34493 16.8576C1.19133 17.1183 1.03454 17.3738 0.881917 17.6303C0.576678 18.1433 0.295515 18.6668 0.0160824 19.1639C0.183956 19.3347 0.318892 19.3057 0.443747 19.3009C2.33011 19.2278 4.21229 19.1537 6.09718 19.1249C8.87818 19.0813 11.6533 18.9114 14.4291 18.7952C14.5321 18.7894 14.6402 18.7805 14.7454 18.7842C16.7667 18.9095 18.774 18.6211 20.7916 18.6295C20.8769 18.6238 21.0005 18.6054 21.048 18.5725C21.0337 18.5199 20.8641 18.1481 20.8226 18.0798Z" fill="#005A8D"/>
                           </svg>