<svg width="102" height="104" viewBox="0 0 102 104" fill="none" xmlns="http://www.w3.org/2000/svg">
<path d="M76.9365 32.1952C79.0287 32.3295 79.9704 32.5762 80.6572 33.1705C81.1625 33.6078 81.6163 34.0179 81.6651 34.0818C81.714 34.1457 81.8025 34.875 81.8617 35.7025C81.9364 36.7438 81.628 37.9049 80.8597 39.4737C78.6587 43.9681 76.8917 45.7367 70.8563 49.4863L66.1243 52.4256L66.5129 59.8281L66.9014 67.2305L67.9599 66.8945C69.6384 66.3617 70.7371 66.5821 71.8304 67.67C73.1142 68.9477 74.493 71.8913 74.4192 73.1971C74.3382 74.6327 73.5931 75.3773 70.3832 77.2306L67.5375 78.8736L67.6763 82.936C67.7527 85.1702 67.7298 87.1843 67.625 87.4113C67.3218 88.0676 62.0982 90.7509 61.4581 90.5786C61.013 90.4591 59.7417 87.4863 55.3393 76.2674C52.2832 68.479 49.6591 62.0737 49.508 62.033C49.3571 61.9925 47.7727 62.661 45.9873 63.5188C42.4613 65.2123 39.427 66.4231 36.3534 67.3638C35.2726 67.6945 34.2396 68.0485 34.0576 68.1505C33.8759 68.2523 33.4682 70.8261 33.152 73.87C32.7152 78.0733 32.4246 79.4924 31.9434 79.7702C31.5948 79.9715 30.2203 80.2433 28.8887 80.3739C26.9366 80.5656 26.3945 80.4844 26.0888 79.9549C25.8804 79.5939 25.2521 77.4545 24.6928 75.2008C24.1333 72.9469 23.5698 70.9196 23.4405 70.6956C23.3112 70.4716 22.5594 70.353 21.7698 70.4324C20.98 70.5115 20.1938 70.4621 20.0228 70.3227C19.3595 69.7819 19.4845 68.5279 20.2914 67.6235C20.7506 67.1086 21.0329 66.5256 20.9186 66.3276C20.8043 66.1296 19.3332 64.6529 17.6491 63.0456C13.5718 59.154 13.4955 58.9418 15.2939 56.4911C16.2092 55.2432 17.0079 54.4599 17.5081 54.3191C18.0232 54.1739 19.9615 54.8487 23.186 56.2954C25.8787 57.5038 28.157 58.4463 28.2491 58.3901C28.3408 58.334 29.0925 57.6576 29.9193 56.887C32.2697 54.6965 34.8259 52.685 38.2187 50.3562C39.9374 49.1766 41.3707 48.1102 41.4039 47.9862C41.4371 47.8622 37.3417 42.5922 32.303 36.2753C27.2644 29.9583 23.0291 24.5949 22.8914 24.3565C22.3251 23.3755 22.9609 22.5271 25.2465 21.2129C26.4685 20.5101 27.8015 19.8461 28.209 19.7368C28.7407 19.5944 29.9189 20.1654 32.3776 21.7568L35.8051 23.9749L38.5482 22.3912C43.2469 19.6784 44.9985 20.0498 46.9403 24.17C48.1452 26.7268 48.0952 27.9531 46.7313 29.3159L45.6847 30.3613L51.9276 34.3834L58.1706 38.405L61.646 36.415C67.9051 32.8314 71.4778 31.8454 76.9365 32.1952Z" fill="#005A8D"/>
<path d="M58.2667 38.4069L41.4358 48.0248C41.4692 47.9003 37.3581 42.6102 32.3001 36.2691C27.2422 29.9279 22.9907 24.544 22.8525 24.3046C22.2839 23.3199 22.9222 22.4683 25.2166 21.149C26.4433 20.4435 27.7814 19.7769 28.1904 19.6673C28.7241 19.5243 29.9069 20.0975 32.375 21.6949L35.8156 23.9216L45.7331 30.3325L51.9998 34.3699L58.2667 38.4069Z" fill="#005A8D"/>
<path d="M66.4351 52.1308L49.0488 62.2721C49.178 62.3067 51.8006 68.7499 54.8768 76.5901C57.9529 84.4302 60.5869 91.0484 60.7304 91.2969C61.3207 92.3193 62.4179 92.1875 64.7953 90.8093C66.0666 90.0725 67.3607 89.2153 67.6716 88.9045C68.0772 88.4988 68.1758 87.1376 68.0208 84.089L67.8048 79.8392L67.1888 67.5931L66.8117 59.8619L66.4351 52.1308Z" fill="#005A8D"/>
</svg>
