<svg width="317" height="154" viewBox="0 0 317 154" fill="none" xmlns="http://www.w3.org/2000/svg">
<path d="M294.589 117.806C275.234 83.5201 255.898 49.2659 236.513 14.9996C236.105 14.2614 235.913 13.1749 234.652 13.1125C234.341 13.4115 233.949 13.7175 233.727 14.0911C232.176 16.6807 230.625 19.2702 229.075 21.8598C227.709 24.1202 226.375 26.3615 225.01 28.6219C220.271 36.5299 215.533 44.4379 210.77 52.3399C210.276 53.1819 209.794 53.9734 210.129 55.0144C210.006 56.639 210.615 58.0925 211.08 59.5914C212.559 64.402 213.957 69.2198 215.493 74.0172C215.493 74.0172 215.487 74.0425 215.512 74.0485C216.1 75.9237 215.906 77.3981 214.16 78.4733C213.709 78.5786 213.259 78.684 212.808 78.7893C206.657 80.1683 200.499 81.5725 194.523 83.6607C193.048 84.2675 192.692 85.7561 191.956 86.9404C188.49 92.6455 185.054 98.3315 181.613 104.043C180.167 106.417 178.746 108.798 177.3 111.172C176.368 112.736 175.416 114.269 174.489 115.807C172.636 118.885 170.927 122.023 169.229 125.004C170.236 126.019 171.049 125.841 171.801 125.808C183.166 125.306 194.506 124.798 205.86 124.561C222.613 124.204 239.333 123.093 256.057 122.302C256.677 122.264 257.329 122.207 257.963 122.226C270.134 122.905 282.233 121.111 294.386 121.092C294.9 121.055 295.645 120.941 295.932 120.743C295.848 120.429 294.837 118.212 294.589 117.806Z" fill="#FFE68D"/>
<path d="M281.36 108.357C266.938 97.5652 252.078 86.7217 237.73 75.8414C233.142 72.3677 214.448 57.7786 210.135 55.0378C210.012 56.6613 210.621 58.1137 211.086 59.6117C212.565 64.4191 213.963 69.2336 215.498 74.0278C215.498 74.0278 215.492 74.053 215.517 74.0591C216.105 75.933 215.911 77.4063 214.166 78.4807C213.716 78.586 213.265 78.6912 212.815 78.7965C206.665 80.1742 200.51 81.5772 194.536 83.6636C198.403 85.6042 222.691 95.0299 234.141 99.5895C249.794 105.797 261.184 110.716 277.334 115.736C281.935 117.16 291.357 119.98 295.928 120.756C292.62 116.817 285.437 111.414 281.36 108.357Z" fill="#FFC700"/>
<path fill-rule="evenodd" clip-rule="evenodd" d="M144.852 38.0271C145.751 35.7443 147.718 34.0457 149.987 33.38C151.637 32.8958 153.408 32.8248 155.275 33.8473C167.001 38.7069 175.717 44.0006 182.226 50.1666C182.226 50.1666 182.82 50.6653 182.88 50.8719C185.11 53.1338 186.867 55.3102 188.418 57.547C190.804 61.109 190.011 66.0523 186.309 68.7088C185.605 69.364 184.78 69.6061 183.955 69.8481C180.861 70.7559 177.162 69.5979 175.224 66.8018C174.061 65.1241 172.898 63.4464 171.383 62.0964L169.807 60.5398C164.995 56.3436 158.206 52.2789 149.294 48.6128C145.207 46.8955 143.138 42.1191 144.852 38.0271ZM66.9776 36.3024C65.9506 38.4346 65.892 41.0344 66.9815 43.2328C68.8664 47.2487 73.7946 48.9113 77.806 47.0255C86.4964 42.8594 94.0596 40.5381 100.395 39.7743L102.605 39.6467C104.621 39.4256 106.644 39.6856 108.667 39.9456C112.039 40.379 115.376 38.4065 116.777 35.499C117.15 34.7236 117.524 33.9483 117.51 32.9859C118.021 28.4547 114.888 24.5527 110.648 23.9391C107.951 23.5924 105.16 23.4395 101.988 23.5808C101.795 23.4873 101.027 23.5945 101.027 23.5945C92.0944 24.2989 82.3284 27.229 70.868 32.6858C68.8588 33.3881 67.7245 34.7518 66.9776 36.3024ZM12.8492 91.1481C13.5575 93.4065 15.2916 95.3425 17.5885 96.1992C21.7078 97.8364 26.4379 95.6726 28.0743 91.5491C31.5642 82.5574 35.4929 75.6832 39.5909 70.7858L41.1151 69.1788C42.4342 67.6363 44.0872 66.4399 45.7402 65.2435C48.4953 63.2496 49.5807 59.5249 48.6147 56.4452C48.3571 55.624 48.0995 54.8027 47.4317 54.1105C44.7078 50.4557 39.756 49.7569 36.2449 52.2142C34.0409 53.8094 31.9012 55.6099 29.6853 57.8855C29.4801 57.95 28.9935 58.5541 28.9935 58.5541C22.961 65.1875 17.842 74.0148 13.2143 85.8454C12.2291 87.7341 12.334 89.5056 12.8492 91.1481Z" fill="#FFE68D"/>
</svg>
