<svg width="22" height="25" viewBox="0 0 25 27" fill="none" xmlns="http://www.w3.org/2000/svg" style="margin-right:5px">
                               <path fill-rule="evenodd" clip-rule="evenodd" d="M2.85258 2.73499C2.33829 3.38445 2.44706 4.32097 2.66461 6.19399L2.70932 6.57891C2.72563 6.71938 2.73379 6.78962 2.7825 6.82819C2.83121 6.86677 2.90145 6.85861 3.04193 6.84229L6.15847 6.48031C6.98137 6.38474 7.72594 6.97434 7.82152 7.79724C7.91709 8.62013 7.32748 9.3647 6.50459 9.46028L3.38804 9.82226C3.24756 9.83857 3.17732 9.84673 3.13875 9.89544C3.10018 9.94415 3.10834 10.0144 3.12465 10.1549L3.34386 12.0422C3.36018 12.1827 3.36833 12.2529 3.41704 12.2915C3.46575 12.33 3.53599 12.3219 3.67647 12.3056L6.79302 11.9436C7.61591 11.848 8.36048 12.4376 8.45606 13.2605C8.55164 14.0834 7.96203 14.828 7.13913 14.9236L4.02258 15.2855C3.88211 15.3018 3.81187 15.31 3.7733 15.3587C3.73472 15.4074 3.74288 15.4777 3.7592 15.6181L3.9784 17.5055C3.99472 17.6459 4.00288 17.7162 4.05159 17.7547C4.1003 17.7933 4.17054 17.7852 4.31101 17.7688L7.42756 17.4069C8.25046 17.3113 8.99502 17.9009 9.0906 18.7238C9.18618 19.5467 8.59657 20.2913 7.77368 20.3868L4.65713 20.7488C4.51665 20.7651 4.44641 20.7733 4.40784 20.822C4.36927 20.8707 4.37743 20.9409 4.39374 21.0814L4.59708 22.8321C4.81463 24.7052 4.9234 25.6417 5.57286 26.156C6.22232 26.6703 7.15883 26.5615 9.03186 26.3439L20.2067 25.046C22.0798 24.8285 23.0163 24.7197 23.5306 24.0702C24.0449 23.4208 23.9361 22.4843 23.7185 20.6112L21.7861 3.97309C21.5685 2.10007 21.4597 1.16355 20.8103 0.64926C20.1608 0.134968 19.2243 0.243741 17.3513 0.461288L6.17641 1.75922C4.30339 1.97676 3.36687 2.08554 2.85258 2.73499Z" fill="#005A8D"/>
                               <path fill-rule="evenodd" clip-rule="evenodd" d="M0.090649 8.69551C0.040585 8.26447 0.349427 7.87445 0.780468 7.82439L6.24374 7.18985C6.67478 7.13978 7.06479 7.44863 7.11486 7.87967C7.16492 8.31071 6.85608 8.70072 6.42504 8.75078L0.961766 9.38532C0.530725 9.43539 0.140713 9.12655 0.090649 8.69551Z" fill="#005A8D"/>
                               <path fill-rule="evenodd" clip-rule="evenodd" d="M1.36018 19.6223C1.31012 19.1912 1.61896 18.8012 2.05 18.7511L7.51327 18.1166C7.94431 18.0665 8.33433 18.3754 8.38439 18.8064C8.43445 19.2375 8.12561 19.6275 7.69457 19.6775L2.2313 20.3121C1.80026 20.3621 1.41024 20.0533 1.36018 19.6223Z" fill="#005A8D"/>
                               <path fill-rule="evenodd" clip-rule="evenodd" d="M0.723462 14.1594C0.673397 13.7283 0.98224 13.3383 1.41328 13.2883L6.87655 12.6537C7.30759 12.6036 7.69761 12.9125 7.74767 13.3435C7.79773 13.7746 7.48889 14.1646 7.05785 14.2146L1.59458 14.8492C1.16354 14.8993 0.773526 14.5904 0.723462 14.1594Z" fill="#005A8D"/>
                               <path fill-rule="evenodd" clip-rule="evenodd" d="M17.8273 11.5793C17.3963 11.6293 17.0063 11.3205 16.9562 10.8895L16.4803 6.792C16.4303 6.36096 16.7391 5.97095 17.1701 5.92088C17.6012 5.87082 17.9912 6.17966 18.0413 6.6107L18.5172 10.7082C18.5672 11.1392 18.2584 11.5292 17.8273 11.5793Z" fill="white"/>
                           </svg>