<svg width="80" height="76" viewBox="0 0 80 76" fill="none" xmlns="http://www.w3.org/2000/svg">
<rect x="-0.828125" y="11.2783" width="71.9066" height="65.4844" rx="6" transform="rotate(-9.22613 -0.828125 11.2783)" fill="#005A8D"/>
<path d="M28.6122 17.7175C29.2867 17.7608 29.5903 17.8403 29.8117 18.0319C29.9747 18.1729 30.1209 18.3051 30.1367 18.3257C30.1524 18.3463 30.181 18.5814 30.2001 18.8482C30.2242 19.1839 30.1247 19.5582 29.877 20.064C29.1674 21.513 28.5977 22.0832 26.652 23.292L25.1264 24.2397L25.2517 26.6262L25.3769 29.0127L25.7182 28.9044C26.2593 28.7326 26.6136 28.8036 26.966 29.1544C27.3799 29.5663 27.8244 30.5153 27.8006 30.9363C27.7745 31.3991 27.5343 31.6392 26.4994 32.2366L25.582 32.7663L25.6268 34.0761C25.6514 34.7964 25.644 35.4457 25.6102 35.5189C25.5125 35.7305 23.8284 36.5955 23.622 36.54C23.4785 36.5015 23.0687 35.543 21.6494 31.9261C20.6641 29.4152 19.8181 27.3501 19.7694 27.337C19.7207 27.324 19.2099 27.5395 18.6343 27.816C17.4976 28.362 16.5193 28.7524 15.5284 29.0556C15.18 29.1623 14.8469 29.2764 14.7883 29.3093C14.7297 29.3421 14.5982 30.1719 14.4963 31.1532C14.3555 32.5083 14.2618 32.9658 14.1066 33.0554C13.9943 33.1203 13.5511 33.2079 13.1218 33.25C12.4925 33.3119 12.3177 33.2857 12.2191 33.115C12.152 32.9986 11.9494 32.3088 11.7691 31.5823C11.5887 30.8556 11.407 30.202 11.3653 30.1298C11.3237 30.0576 11.0813 30.0194 10.8267 30.045C10.5721 30.0705 10.3186 30.0545 10.2635 30.0096C10.0497 29.8352 10.0899 29.4309 10.3501 29.1394C10.4982 28.9734 10.5892 28.7854 10.5523 28.7216C10.5155 28.6578 10.0412 28.1817 9.49824 27.6635C8.18374 26.4088 8.15915 26.3404 8.73892 25.5504C9.03403 25.148 9.29151 24.8955 9.45278 24.8501C9.61883 24.8033 10.2437 25.0208 11.2833 25.4872C12.1514 25.8768 12.8859 26.1807 12.9156 26.1626C12.9452 26.1445 13.1875 25.9264 13.4541 25.678C14.2118 24.9718 15.036 24.3233 16.1298 23.5725C16.6839 23.1922 17.1459 22.8484 17.1567 22.8084C17.1674 22.7684 15.847 21.0694 14.2226 19.0329C12.5982 16.9963 11.2327 15.2672 11.1883 15.1903C11.0057 14.8741 11.2107 14.6005 11.9476 14.1768C12.3416 13.9502 12.7713 13.7362 12.9027 13.7009C13.0741 13.655 13.454 13.8391 14.2466 14.3522L15.3516 15.0673L16.236 14.5567C17.7508 13.6821 18.3156 13.8018 18.9416 15.1302C19.33 15.9545 19.3139 16.3498 18.8742 16.7892L18.5368 17.1262L20.5494 18.4229L22.5622 19.7195L23.6826 19.0779C25.7005 17.9226 26.8523 17.6047 28.6122 17.7175Z" fill="white"/>
<path d="M34.6122 50.2585C35.2867 50.3018 35.5903 50.3813 35.8117 50.5729C35.9747 50.7139 36.1209 50.8461 36.1367 50.8667C36.1524 50.8873 36.181 51.1224 36.2001 51.3892C36.2242 51.7249 36.1247 52.0993 35.877 52.605C35.1674 54.054 34.5977 54.6242 32.652 55.833L31.1264 56.7807L31.2517 59.1672L31.3769 61.5537L31.7182 61.4454C32.2593 61.2736 32.6136 61.3446 32.966 61.6954C33.3799 62.1073 33.8244 63.0563 33.8006 63.4773C33.7745 63.9401 33.5343 64.1802 32.4994 64.7777L31.582 65.3074L31.6268 66.6171C31.6514 67.3374 31.644 67.9867 31.6102 68.0599C31.5125 68.2715 29.8284 69.1365 29.622 69.081C29.4785 69.0425 29.0687 68.0841 27.6494 64.4671C26.6641 61.9562 25.8181 59.8912 25.7694 59.878C25.7207 59.865 25.2099 60.0805 24.6343 60.357C23.4976 60.903 22.5193 61.2934 21.5284 61.5966C21.18 61.7033 20.8469 61.8174 20.7883 61.8503C20.7297 61.8831 20.5982 62.7129 20.4963 63.6942C20.3555 65.0494 20.2618 65.5069 20.1066 65.5964C19.9943 65.6613 19.5511 65.7489 19.1218 65.791C18.4925 65.8529 18.3177 65.8267 18.2191 65.656C18.152 65.5396 17.9494 64.8498 17.7691 64.1233C17.5887 63.3966 17.407 62.743 17.3653 62.6708C17.3237 62.5986 17.0813 62.5604 16.8267 62.586C16.5721 62.6115 16.3186 62.5955 16.2635 62.5506C16.0497 62.3763 16.0899 61.972 16.3501 61.6804C16.4982 61.5144 16.5892 61.3264 16.5523 61.2626C16.5155 61.1988 16.0412 60.7227 15.4982 60.2045C14.1837 58.9499 14.1592 58.8814 14.7389 58.0914C15.034 57.689 15.2915 57.4365 15.4528 57.3911C15.6188 57.3443 16.2437 57.5619 17.2833 58.0283C18.1514 58.4179 18.8859 58.7217 18.9156 58.7036C18.9452 58.6855 19.1875 58.4674 19.4541 58.219C20.2118 57.5128 21.036 56.8643 22.1298 56.1135C22.6839 55.7332 23.1459 55.3894 23.1567 55.3494C23.1674 55.3094 21.847 53.6104 20.2226 51.5739C18.5982 49.5373 17.2327 47.8082 17.1883 47.7313C17.0057 47.4151 17.2107 47.1415 17.9476 46.7178C18.3416 46.4913 18.7713 46.2772 18.9027 46.242C19.0741 46.1961 19.454 46.3801 20.2466 46.8932L21.3516 47.6083L22.236 47.0977C23.7508 46.2231 24.3156 46.3429 24.9416 47.6712C25.33 48.4955 25.3139 48.8908 24.8742 49.3302L24.5368 49.6673L26.5494 50.9639L28.5622 52.2605L29.6826 51.6189C31.7005 50.4636 32.8523 50.1457 34.6122 50.2585Z" fill="white"/>
<path d="M63.6122 12.7175C64.2867 12.7608 64.5903 12.8403 64.8117 13.0319C64.9747 13.1729 65.1209 13.3051 65.1367 13.3257C65.1524 13.3463 65.181 13.5814 65.2001 13.8482C65.2242 14.1839 65.1247 14.5582 64.877 15.064C64.1674 16.513 63.5977 17.0832 61.652 18.292L60.1264 19.2397L60.2517 21.6262L60.3769 24.0127L60.7182 23.9044C61.2593 23.7326 61.6136 23.8036 61.966 24.1544C62.3799 24.5663 62.8244 25.5153 62.8006 25.9363C62.7745 26.3991 62.5343 26.6392 61.4994 27.2366L60.582 27.7663L60.6268 29.0761C60.6514 29.7964 60.644 30.4457 60.6102 30.5189C60.5125 30.7305 58.8284 31.5955 58.622 31.54C58.4785 31.5015 58.0687 30.543 56.6494 26.9261C55.6641 24.4152 54.8181 22.3501 54.7694 22.337C54.7207 22.324 54.2099 22.5395 53.6343 22.816C52.4976 23.362 51.5193 23.7524 50.5284 24.0556C50.18 24.1623 49.8469 24.2764 49.7883 24.3093C49.7297 24.3421 49.5982 25.1719 49.4963 26.1532C49.3555 27.5083 49.2618 27.9658 49.1066 28.0554C48.9943 28.1203 48.5511 28.2079 48.1218 28.25C47.4925 28.3119 47.3177 28.2857 47.2191 28.115C47.152 27.9986 46.9494 27.3088 46.7691 26.5823C46.5887 25.8556 46.407 25.202 46.3653 25.1298C46.3237 25.0576 46.0813 25.0194 45.8267 25.045C45.5721 25.0705 45.3186 25.0545 45.2635 25.0096C45.0497 24.8352 45.0899 24.4309 45.3501 24.1394C45.4982 23.9734 45.5892 23.7854 45.5523 23.7216C45.5155 23.6578 45.0412 23.1817 44.4982 22.6635C43.1837 21.4088 43.1592 21.3404 43.7389 20.5504C44.034 20.148 44.2915 19.8955 44.4528 19.8501C44.6188 19.8033 45.2437 20.0208 46.2833 20.4872C47.1514 20.8768 47.8859 21.1807 47.9156 21.1626C47.9452 21.1445 48.1875 20.9264 48.4541 20.678C49.2118 19.9718 50.036 19.3233 51.1298 18.5725C51.6839 18.1922 52.1459 17.8484 52.1567 17.8084C52.1674 17.7684 50.847 16.0694 49.2226 14.0329C47.5982 11.9963 46.2327 10.2672 46.1883 10.1903C46.0057 9.87405 46.2107 9.60053 46.9476 9.17683C47.3416 8.95024 47.7713 8.73616 47.9027 8.70095C48.0741 8.65503 48.454 8.83913 49.2466 9.35217L50.3516 10.0673L51.236 9.55669C52.7508 8.68211 53.3156 8.80184 53.9416 10.1302C54.33 10.9545 54.3139 11.3498 53.8742 11.7892L53.5368 12.1262L55.5494 13.4229L57.5622 14.7195L58.6826 14.0779C60.7005 12.9226 61.8523 12.6047 63.6122 12.7175Z" fill="white"/>
<path d="M70.8544 44.7175C71.5289 44.7608 71.8325 44.8403 72.0539 45.0319C72.2168 45.1729 72.3631 45.3051 72.3789 45.3257C72.3946 45.3463 72.4231 45.5814 72.4422 45.8482C72.4663 46.1839 72.3669 46.5582 72.1192 47.064C71.4096 48.513 70.8399 49.0832 68.8942 50.292L67.3686 51.2397L67.4939 53.6262L67.6191 56.0127L67.9604 55.9044C68.5015 55.7326 68.8557 55.8036 69.2082 56.1544C69.6221 56.5663 70.0666 57.5153 70.0428 57.9363C70.0167 58.3991 69.7765 58.6392 68.7416 59.2366L67.8242 59.7663L67.869 61.0761C67.8936 61.7964 67.8862 62.4457 67.8524 62.5189C67.7547 62.7305 66.0706 63.5955 65.8642 63.54C65.7207 63.5015 65.3109 62.543 63.8916 58.9261C62.9063 56.4152 62.0603 54.3501 62.0116 54.337C61.9629 54.324 61.4521 54.5395 60.8765 54.816C59.7398 55.362 58.7615 55.7524 57.7706 56.0556C57.4222 56.1623 57.0891 56.2764 57.0305 56.3093C56.9719 56.3421 56.8404 57.1719 56.7385 58.1532C56.5976 59.5083 56.504 59.9658 56.3488 60.0554C56.2364 60.1203 55.7933 60.2079 55.364 60.25C54.7347 60.3119 54.5599 60.2857 54.4613 60.115C54.3941 59.9986 54.1916 59.3088 54.0113 58.5823C53.8309 57.8556 53.6492 57.202 53.6075 57.1298C53.5658 57.0576 53.3235 57.0194 53.0689 57.045C52.8143 57.0705 52.5608 57.0545 52.5057 57.0096C52.2919 56.8352 52.3321 56.4309 52.5923 56.1394C52.7403 55.9734 52.8313 55.7854 52.7945 55.7216C52.7576 55.6578 52.2834 55.1817 51.7404 54.6635C50.4259 53.4088 50.4013 53.3404 50.9811 52.5504C51.2762 52.148 51.5337 51.8955 51.695 51.8501C51.861 51.8033 52.4859 52.0208 53.5255 52.4872C54.3936 52.8768 55.1281 53.1807 55.1578 53.1626C55.1874 53.1445 55.4297 52.9264 55.6963 52.678C56.454 51.9718 57.2782 51.3233 58.372 50.5725C58.9261 50.1922 59.3881 49.8484 59.3988 49.8084C59.4096 49.7684 58.0892 48.0694 56.4648 46.0329C54.8403 43.9963 53.4749 42.2672 53.4305 42.1903C53.2479 41.8741 53.4529 41.6005 54.1898 41.1768C54.5838 40.9502 55.0135 40.7362 55.1449 40.7009C55.3163 40.655 55.6961 40.8391 56.4888 41.3522L57.5938 42.0673L58.4782 41.5567C59.993 40.6821 60.5577 40.8018 61.1838 42.1302C61.5722 42.9545 61.5561 43.3498 61.1164 43.7892L60.779 44.1262L62.7916 45.4229L64.8043 46.7195L65.9248 46.0779C67.9427 44.9226 69.0945 44.6047 70.8544 44.7175Z" fill="white"/>
<path d="M9 43.9805L72.1321 33.4763" stroke="white" stroke-width="2" stroke-dasharray="5 5"/>
<path d="M45 67L35 10" stroke="white" stroke-width="2" stroke-dasharray="5 5"/>
</svg>
