<?xml version="1.0" encoding="utf-8"?>
<!-- Generator: Adobe Illustrator 25.4.1, SVG Export Plug-In . SVG Version: 6.00 Build 0)  -->
<svg version="1.1" id="Capa_1" xmlns="http://www.w3.org/2000/svg" xmlns:xlink="http://www.w3.org/1999/xlink" x="0px" y="0px"
	 viewBox="0 0 72 80" style="enable-background:new 0 0 72 80;" xml:space="preserve">
<style type="text/css">
	.st0{fill-rule:evenodd;clip-rule:evenodd;fill:#005A8D;}
	.st1{fill:none;}
	.st2{fill:#FFFFFF;}
	.st3{fill-rule:evenodd;clip-rule:evenodd;fill:#FFFFFF;}
</style>
<path class="st0" d="M61.8,80H10.2C4.6,80,0,75.4,0,69.8V39.4c0-5.6,4.6-10.2,10.2-10.2h51.6c5.6,0,10.2,4.6,10.2,10.2v30.4
	C72,75.4,67.4,80,61.8,80z"/>
<path class="st1" d="M0,0"/>
<path class="st0" d="M11,24.8C11,11.1,22.2,0,36,0c13.8,0,25,11.1,25,24.8v4.5h-9.6v-4.5c0-8.5-6.9-15.3-15.5-15.3
	c-8.5,0-15.5,6.9-15.5,15.3v4.5H11V24.8z"/>
<path class="st2" d="M45,51.5c0,4.9-4,8.9-9,8.9s-9-4-9-8.9s4-8.9,9-8.9S45,46.6,45,51.5z"/>
<path class="st3" d="M36,53.8c1.2,0,2.2,1,2.2,2.2v11.1c0,1.2-1,2.2-2.2,2.2s-2.2-1-2.2-2.2V56C33.8,54.8,34.8,53.8,36,53.8z"/>
</svg>
