<svg width="86" height="63" viewBox="0 0 86 63" fill="none" xmlns="http://www.w3.org/2000/svg">
<path fill-rule="evenodd" clip-rule="evenodd" d="M33.6613 9.36423C35.9877 9.05254 37.621 6.91394 37.3093 4.58751C36.9976 2.26109 34.859 0.627817 32.5326 0.939498C23.1253 2.19984 14.5709 5.16411 8.64674 9.59714C2.69761 14.0489 -0.850045 20.3139 0.964065 27.2037C2.66298 33.6559 8.61878 38.6291 16.0701 41.8964C23.2349 45.0381 32.1215 46.7845 41.2574 46.9815L31.4939 56.745L37.5043 62.7554L57.5095 42.7502L37.5043 22.745L31.4939 28.7554L41.2167 38.4783C33.0591 38.2773 25.3905 36.702 19.4835 34.1119C12.981 31.2606 9.90749 27.7875 9.1839 25.0393C8.57551 22.7287 9.37734 19.6668 13.7393 16.4027C18.1263 13.1199 25.1414 10.5057 33.6613 9.36423Z" fill="#005A8D"/>
<path d="M76.1255 33.1875C78.637 31.0125 80.2671 28.6114 80.9228 26.1213C81.5784 23.6313 81.2467 21.101 79.9467 18.6751C78.6466 16.2491 76.4036 13.975 73.3458 11.9824C70.2879 9.98991 66.4751 8.31803 62.125 7.06226" stroke="#005A8D" stroke-width="8.5" stroke-linecap="round"/>
</svg>
