<svg width="63" height="80" viewBox="0 0 63 80" fill="none" xmlns="http://www.w3.org/2000/svg">
<path d="M43.7728 5.42644L60.0576 12.4057C61.3708 12.9684 62.2222 14.2596 62.2222 15.6883V46.7503C62.2222 53.6706 58.8801 60.165 53.2487 64.1874L33.187 78.5173C31.9452 79.4042 30.277 79.4042 29.0353 78.5173L8.97347 64.1874C3.34212 60.165 0 53.6706 0 46.7503V15.6883C0 14.2596 0.851416 12.9684 2.16457 12.4057L18.4494 5.42644C26.5349 1.96123 35.6873 1.96122 43.7728 5.42644Z" fill="#005A8D"/>
<path fill-rule="evenodd" clip-rule="evenodd" d="M50.6584 27.5955C51.6347 28.5718 51.6347 30.1547 50.6584 31.131L30.3596 51.4298C29.1392 52.6502 27.1606 52.6502 25.9402 51.4298L16.0117 41.5014C15.0354 40.5251 15.0354 38.9422 16.0117 37.9659C16.9881 36.9896 18.571 36.9896 19.5473 37.9659L28.1499 46.5685L47.1229 27.5955C48.0992 26.6192 49.6821 26.6192 50.6584 27.5955Z" fill="white"/>
</svg>
