<svg width="79" height="71" viewBox="0 0 79 71" fill="none" xmlns="http://www.w3.org/2000/svg">
<path d="M13.4359 10.0076L4.60773 26.7576C2.35087 31.0396 1.22244 33.1806 1.22244 35.5C1.22244 37.8194 2.35087 39.9604 4.60773 44.2424L13.4359 60.9924C16.0051 65.867 17.2897 68.3043 19.5237 69.6522C21.7577 71 24.5128 71 30.0231 71H48.9769C54.4872 71 57.2423 71 59.4763 69.6522C61.7103 68.3043 62.9949 65.867 65.5641 60.9924L74.3923 44.2424C76.6491 39.9604 77.7776 37.8194 77.7776 35.5C77.7776 33.1806 76.6491 31.0396 74.3923 26.7576L65.5641 10.0076C62.9949 5.133 61.7103 2.69569 59.4763 1.34784C57.2423 0 54.4872 0 48.9769 0H30.0231C24.5128 0 21.7577 0 19.5237 1.34784C17.2897 2.69569 16.0051 5.133 13.4359 10.0076Z" fill="#005A8D"/>
<ellipse cx="39.501" cy="35.4996" rx="12.4737" ry="12.5294" fill="white"/>
</svg>
