<svg width="381" height="384" viewBox="0 0 381 384" fill="none" xmlns="http://www.w3.org/2000/svg">
<path d="M321.932 84.3343C308.076 59.7875 294.233 35.2631 280.354 10.73C280.062 10.2015 279.925 9.42361 279.022 9.37883C278.8 9.59282 278.519 9.81192 278.36 10.0793C277.25 11.933 276.141 13.7868 275.031 15.6405C274.054 17.2586 273.099 18.863 272.122 20.4811C268.731 26.142 265.34 31.8029 261.932 37.4595C261.578 38.0623 261.233 38.6289 261.473 39.3741C261.385 40.5372 261.821 41.5778 262.154 42.6509C263.214 46.095 264.215 49.5441 265.315 52.9788C265.315 52.9788 265.31 52.9968 265.328 53.0012C265.749 54.3437 265.611 55.3992 264.361 56.1687C264.038 56.2441 263.716 56.3195 263.393 56.3949C258.99 57.3815 254.583 58.3862 250.305 59.8806C249.25 60.3148 248.995 61.3805 248.469 62.2283C245.988 66.3123 243.53 70.3825 241.067 74.4709C240.033 76.1707 239.016 77.8748 237.981 79.5746C237.314 80.694 236.632 81.7911 235.969 82.8925C234.643 85.0953 233.42 87.3421 232.205 89.4762C232.926 90.203 233.508 90.0754 234.046 90.0519C242.181 89.6936 250.297 89.331 258.424 89.1619C270.415 88.9082 282.383 88.1142 294.353 87.5498C294.797 87.5228 295.264 87.4819 295.717 87.4953C304.429 87.9824 313.089 86.6998 321.788 86.6871C322.156 86.6608 322.689 86.5788 322.894 86.437C322.834 86.2124 322.11 84.6253 321.932 84.3343Z" fill="#FFE68D"/>
<path d="M312.459 77.5668C302.136 69.8406 291.499 62.0771 281.229 54.2873C277.945 51.8004 264.564 41.3553 261.477 39.393C261.389 40.5551 261.825 41.5949 262.158 42.6672C263.217 46.1086 264.218 49.5551 265.317 52.987C265.317 52.987 265.313 53.0051 265.331 53.0094C265.751 54.3509 265.613 55.4055 264.364 56.1744C264.042 56.2497 263.719 56.325 263.397 56.4003C258.996 57.386 254.59 58.3897 250.315 59.8826C253.083 61.2721 270.467 68.0215 278.663 71.2865C289.866 75.7316 298.019 79.2535 309.578 82.8488C312.871 83.8683 319.615 85.8879 322.887 86.4441C320.519 83.6237 315.377 79.7559 312.459 77.5668Z" fill="#FFC700"/>
<path fill-rule="evenodd" clip-rule="evenodd" d="M214.757 27.2135C215.401 25.579 216.808 24.3629 218.432 23.8863C219.613 23.5397 220.881 23.4888 222.217 24.2209C230.609 27.7001 236.848 31.4902 241.506 35.9048C241.506 35.9048 241.931 36.2618 241.974 36.4097C243.57 38.0292 244.828 39.5874 245.937 41.1889C247.645 43.7391 247.078 47.2783 244.428 49.1802C243.924 49.6493 243.334 49.8226 242.743 49.9959C240.529 50.6459 237.882 49.8168 236.495 47.8149C235.662 46.6137 234.83 45.4126 233.746 44.446L232.618 43.3315C229.174 40.3272 224.315 37.4171 217.936 34.7923C215.012 33.5628 213.53 30.1432 214.757 27.2135ZM159.022 25.9787C158.287 27.5052 158.245 29.3665 159.025 30.9405C160.374 33.8157 163.901 35.0061 166.772 33.6559C172.992 30.6731 178.405 29.0112 182.939 28.4644L184.521 28.373C185.964 28.2147 187.412 28.4008 188.86 28.587C191.273 28.8973 193.661 27.4851 194.664 25.4034C194.931 24.8483 195.198 24.2932 195.188 23.6042C195.554 20.36 193.312 17.5663 190.277 17.1271C188.347 16.8788 186.349 16.7694 184.08 16.8705C183.941 16.8036 183.391 16.8803 183.391 16.8803C176.998 17.3846 170.009 19.4824 161.806 23.3893C160.368 23.8921 159.557 24.8684 159.022 25.9787ZM120.282 65.2458C120.789 66.8627 122.03 68.2488 123.674 68.8622C126.622 70.0343 130.008 68.4851 131.179 65.5329C133.676 59.0952 136.488 54.1736 139.421 50.6673L140.512 49.5167C141.456 48.4124 142.639 47.5558 143.822 46.6992C145.794 45.2716 146.571 42.605 145.88 40.4C145.695 39.8121 145.511 39.2241 145.033 38.7284C143.083 36.1118 139.539 35.6115 137.027 37.3708C135.449 38.5129 133.918 39.802 132.332 41.4312C132.185 41.4774 131.837 41.9099 131.837 41.9099C127.519 46.6591 123.855 52.9791 120.543 61.4493C119.838 62.8015 119.913 64.0698 120.282 65.2458Z" fill="#FFE68D"/>
<path d="M193.29 110.295C190.905 110.295 187.724 111.377 186.206 116.422L174.642 152.537L165.173 115.63C164.811 114.044 164.016 112.818 162.86 111.953C161.703 110.944 160.186 110.367 158.379 110.367C156.499 110.367 154.909 110.872 153.825 111.881C152.741 112.818 151.946 114.044 151.512 115.557L140.67 152.032L129.25 116.495C128.527 114.332 127.66 112.818 126.503 111.953C125.347 110.944 123.901 110.367 122.166 110.367C118.769 110.367 117.323 111.953 116.745 113.395C116.022 115.053 116.022 117.288 116.745 119.955L133.948 171.351C134.382 172.649 135.249 173.73 136.478 174.667C139.08 176.325 142.332 176.253 144.718 174.667C146.019 173.73 146.886 172.576 147.247 171.279L158.089 133.146L168.425 171.279C168.787 172.576 169.654 173.73 171.028 174.667C172.256 175.46 173.63 175.892 175.147 175.892C176.665 175.892 178.111 175.46 179.34 174.595C180.568 173.658 181.364 172.576 181.725 171.279L198.928 119.883C199.867 117.215 199.867 114.981 199 113.179C198.06 111.881 196.542 110.295 193.29 110.295Z" fill="#005A8D"/>
<path d="M338.817 126.154C335.926 121.108 331.95 117.143 327.035 114.26C322.048 111.304 316.41 109.791 310.122 109.791C303.906 109.791 298.268 111.304 293.281 114.26C288.366 117.143 284.39 121.108 281.499 126.154C278.608 131.128 277.162 136.895 277.09 143.166V195.932C277.09 197.95 277.74 199.608 279.041 200.906C280.415 202.275 282.149 202.996 284.101 202.996C286.197 202.996 287.932 202.275 289.161 200.906C290.462 199.608 291.112 197.95 291.112 195.932V167.603C293.497 169.981 296.244 171.928 299.28 173.514C303.255 175.46 307.737 176.397 312.435 176.397C318.289 176.397 323.566 174.955 328.264 172.072C332.89 169.116 336.576 165.152 339.178 160.178C341.853 155.204 343.226 149.437 343.226 143.238C343.298 136.895 341.78 131.128 338.817 126.154ZM327.035 153.69C325.373 156.718 323.06 159.241 320.096 161.043C317.205 162.773 313.808 163.638 310.122 163.638C306.508 163.638 303.111 162.773 300.147 161.043C297.256 159.241 294.871 156.79 293.208 153.69C291.546 150.591 290.678 147.058 290.678 143.166C290.678 139.201 291.546 135.669 293.208 132.569C294.871 129.47 297.184 127.019 300.147 125.217C303.111 123.415 306.508 122.478 310.122 122.478C313.808 122.478 317.205 123.415 320.096 125.217C322.988 126.947 325.301 129.398 327.035 132.569C328.77 135.597 329.71 139.201 329.71 143.094C329.637 147.058 328.77 150.591 327.035 153.69Z" fill="#005A8D"/>
<path d="M81.6922 121.757C75.8376 121.18 71.2839 120.099 68.1759 118.657C65.2124 117.215 63.1886 115.557 62.0321 113.683C60.9479 111.665 60.4419 109.647 60.4419 107.484C60.4419 103.303 62.1766 100.348 65.7184 98.4013C69.1878 96.3109 73.6692 95.3017 78.9456 95.3017C82.1982 95.3017 85.1617 95.6621 87.6192 96.5992C89.8599 97.3921 91.8837 98.5455 93.5462 99.9872C95.2086 101.429 96.6542 103.231 97.8107 105.394C98.8226 107.124 100.268 108.277 102.292 108.926C104.316 109.574 106.195 109.358 108.002 108.205C109.592 107.196 110.532 105.754 110.677 103.952C110.966 102.15 110.46 100.276 109.231 98.3292C107.279 95.0854 104.894 92.2741 102.147 89.8953C99.4009 87.5165 96.1482 85.5702 92.5342 84.2727C88.9202 82.831 84.6557 82.1823 79.813 82.1823C73.6692 82.1823 68.0313 83.1194 62.9717 85.0656C57.9121 87.0119 53.8644 89.8232 50.901 93.4995C47.8652 97.248 46.3473 101.861 46.3473 107.196C46.3473 114.476 49.2385 120.603 54.9486 125.505C60.5865 130.335 68.3927 133.29 78.2228 134.227C85.3062 134.948 90.3658 136.895 93.3293 139.922C96.3651 142.95 97.883 146.338 97.883 150.086C97.883 153.042 97.0156 155.492 95.2809 157.583C93.4739 159.601 91.0886 161.187 88.0529 162.268C82.415 164.359 75.187 164.503 69.0432 162.485C66.152 161.548 63.6222 160.25 61.5984 158.736C59.6468 157.222 58.2735 155.564 57.4062 153.834C56.6111 152.104 55.3823 150.807 53.8644 150.014C52.2743 149.149 50.6118 148.861 48.9494 149.221C46.7087 149.654 45.0463 150.735 44.0343 152.465C43.0947 154.195 43.0947 156.069 43.9621 157.943C45.5522 161.692 48.1543 165.08 51.6238 167.963C55.0209 170.846 59.0686 173.081 63.6945 174.667C68.2482 176.253 73.1632 177.046 78.2228 177.046C82.4873 177.046 86.6796 176.469 90.5827 175.388C94.6304 174.306 98.2444 172.576 101.425 170.342C104.677 168.035 107.207 165.152 109.086 161.764C111.038 158.376 112.05 154.339 112.05 149.726C112.05 141.796 109.303 135.309 103.882 130.479C98.5335 125.649 91.0886 122.694 81.6922 121.757Z" fill="#005A8D"/>
<path d="M251.334 114.044C246.347 111.088 240.709 109.574 234.493 109.574C228.277 109.574 222.567 111.088 217.579 114.044C212.664 116.927 208.617 120.892 205.653 125.938C202.762 130.984 201.316 136.678 201.316 142.95C201.316 149.221 202.617 154.916 205.292 159.89C207.966 164.791 211.725 168.828 216.351 171.784C217.941 172.793 222.061 174.451 222.278 174.523C225.386 175.532 230.59 176.181 236.661 175.748C239.336 175.46 241.938 175.099 244.178 174.234C246.564 173.442 247.503 171.856 247.792 170.63C248.226 168.972 247.937 167.242 246.925 165.44C246.13 164.07 244.829 163.061 243.311 162.701C241.865 162.196 240.275 162.268 238.685 162.701C235.071 163.638 230.734 163.133 229 162.629C227.409 162.196 225.964 161.548 224.518 160.755C221.627 158.952 219.242 156.43 217.507 153.402C215.845 150.302 214.977 146.698 214.977 142.806C214.977 138.841 215.845 135.309 217.507 132.209C219.242 129.109 221.627 126.586 224.518 124.856C227.482 123.054 230.879 122.117 234.493 122.117C238.179 122.117 241.576 123.054 244.468 124.856C247.359 126.586 249.672 129.037 251.334 132.209C252.997 135.237 253.936 138.841 253.864 142.806C253.647 156.79 253.719 170.63 253.719 168.684C253.719 170.63 254.37 172.288 255.671 173.73C257.044 175.027 258.418 175.676 260.369 175.676C262.393 175.676 264.055 175.027 265.357 173.73C266.73 172.36 267.453 170.63 267.453 168.684V142.95C267.453 136.678 265.935 130.984 263.044 125.938C260.225 120.892 256.249 116.927 251.334 114.044Z" fill="#005A8D"/>
<path d="M149.149 308.161C148.209 308.161 147.124 307.871 145.895 307.364C143.871 306.421 142.569 305.189 141.991 303.667C141.412 302.145 141.629 300.405 142.497 298.52L153.849 272.86L117.045 201.39C116.105 199.577 115.961 197.91 116.684 196.243C117.407 194.576 118.708 193.344 120.444 192.619C122.179 191.894 123.914 191.821 125.505 192.474C127.023 193.054 128.253 194.213 129.12 195.953L160.284 258.363L177.998 218.279C179.734 214.509 182.843 213.35 186.675 214.944C188.7 215.814 190.073 217.046 190.652 218.569C191.23 220.091 191.086 221.831 190.218 223.788L154.644 303.884C153.342 307.436 150.884 308.161 149.149 308.161ZM291.428 280.834C285.933 280.834 280.943 279.674 276.533 277.355C272.195 274.89 268.652 271.338 266.121 266.772C263.663 262.205 262.361 256.551 262.361 249.955V221.251C262.361 219.221 263.012 217.554 264.313 216.249C265.687 214.872 267.422 214.147 269.375 214.147C271.399 214.147 273.062 214.872 274.364 216.249C275.737 217.481 276.388 219.221 276.388 221.178V249.81C276.388 253.942 277.184 257.421 278.702 260.103C280.22 262.712 282.245 264.67 284.848 265.902C287.451 267.134 290.488 267.786 293.741 267.786C296.851 267.786 299.67 267.134 302.057 265.902C304.515 264.67 306.467 263.002 307.913 260.9C309.359 258.871 310.01 256.551 310.01 253.942V221.251C310.01 219.149 310.661 217.481 311.962 216.177C313.336 214.872 315.071 214.22 317.024 214.22C319.12 214.22 320.856 214.872 322.085 216.177C323.386 217.481 324.037 219.221 324.037 221.251V273.15C324.037 275.18 323.386 276.847 322.085 278.224C320.784 279.529 319.048 280.182 316.951 280.182C314.927 280.182 313.264 279.529 311.89 278.224C310.805 277.065 310.227 275.76 310.01 274.31C308.709 275.397 307.262 276.412 305.672 277.21C301.623 279.602 296.778 280.834 291.428 280.834ZM222.219 280.689C215.784 280.689 210 279.239 205.083 276.485C200.094 273.585 196.189 269.599 193.297 264.67C190.477 259.596 189.104 253.797 189.104 247.346C189.104 240.822 190.55 235.023 193.297 230.021C196.189 224.947 200.166 220.961 205.083 218.206C210 215.307 215.784 213.857 222.219 213.857C228.582 213.857 234.294 215.307 239.283 218.206C244.2 221.033 248.177 225.02 250.997 230.021C253.889 234.95 255.335 240.822 255.335 247.346C255.335 253.797 253.889 259.596 251.141 264.67C248.321 269.671 244.417 273.585 239.428 276.485C234.367 279.239 228.654 280.689 222.219 280.689ZM341.46 280.182C339.291 280.182 337.628 279.602 336.399 278.514C335.17 277.282 334.519 275.47 334.519 273.223V221.251C334.519 219.076 335.17 217.336 336.327 216.177C337.556 214.944 339.291 214.364 341.388 214.364C343.629 214.364 345.365 215.017 346.522 216.249C347.606 217.264 348.185 218.786 348.329 220.743C349.848 219.366 351.511 218.134 353.391 217.119C357.44 214.872 361.923 213.712 366.695 213.712C371.611 213.712 375.227 214.509 377.685 216.249C381.083 218.424 381.3 221.033 380.794 222.845C380.505 224.15 379.927 225.165 379.059 225.962C378.264 226.615 377.324 227.122 376.311 227.267C375.299 227.412 374.214 227.412 373.058 227.122C368.285 226.18 363.947 226.035 360.187 226.905C356.5 227.702 353.463 229.224 351.366 231.399C349.342 233.501 348.329 236.183 348.329 239.445V273.44C348.329 275.615 347.679 277.355 346.522 278.514C345.509 279.602 343.774 280.182 341.46 280.182ZM222.219 226.542C218.387 226.542 215.061 227.412 212.097 229.152C209.204 230.891 206.891 233.356 205.228 236.545C203.565 239.662 202.697 243.214 202.697 247.273C202.697 251.332 203.565 254.957 205.228 258.001C206.891 261.045 209.204 263.51 212.097 265.249C214.989 266.989 218.387 267.859 222.219 267.859C226.051 267.859 229.377 266.989 232.342 265.249C235.234 263.51 237.548 261.045 239.139 258.001C240.802 254.884 241.669 251.26 241.669 247.273C241.669 243.214 240.802 239.59 239.139 236.545C237.548 233.356 235.234 230.891 232.342 229.152C229.377 227.412 225.979 226.542 222.219 226.542Z" fill="#89C9D3"/>
<path d="M15.988 201.436C29.859 225.978 43.7163 250.499 57.6096 275.028C57.902 275.556 58.0398 276.334 58.9423 276.378C59.1646 276.164 59.4451 275.945 59.6041 275.677C60.7123 273.823 61.8205 271.968 62.9287 270.113C63.9046 268.495 64.8582 266.889 65.8341 265.271C69.2206 259.607 72.6071 253.944 76.0116 248.284C76.3647 247.681 76.7091 247.114 76.4684 246.369C76.5557 245.206 76.1191 244.165 75.7855 243.092C74.7239 239.648 73.7206 236.199 72.6187 232.765C72.6187 232.765 72.623 232.747 72.605 232.742C72.1834 231.4 72.3211 230.344 73.5702 229.574C73.8925 229.498 74.2149 229.423 74.5373 229.347C78.9392 228.358 83.3453 227.351 87.621 225.854C88.6758 225.419 88.9301 224.353 89.4558 223.505C91.9333 219.419 94.3886 215.347 96.8481 211.256C97.8815 209.556 98.897 207.851 99.9304 206.15C100.597 205.03 101.277 203.933 101.94 202.831C103.264 200.627 104.485 198.379 105.699 196.244C104.978 195.518 104.396 195.646 103.857 195.67C95.7245 196.032 87.6096 196.399 79.4838 196.573C67.4948 196.833 55.529 197.634 43.561 198.205C43.117 198.232 42.6507 198.273 42.1973 198.26C33.4861 197.778 24.8282 199.065 16.1309 199.083C15.7632 199.109 15.2299 199.191 15.0249 199.333C15.0854 199.558 15.8101 201.145 15.988 201.436Z" fill="#89C9D3"/>
<path d="M25.4601 208.198C35.7871 215.921 46.4285 223.68 56.7023 231.466C59.9882 233.951 73.3747 244.391 76.4625 246.353C76.5497 245.19 76.1133 244.15 75.7797 243.078C74.7184 239.636 73.7154 236.19 72.6138 232.757C72.6138 232.757 72.6181 232.739 72.6002 232.735C72.1787 231.393 72.3163 230.339 73.5648 229.569C73.887 229.493 74.2093 229.418 74.5316 229.342C78.9317 228.354 83.3361 227.347 87.61 225.852C84.8419 224.463 67.4544 217.722 59.2575 214.461C48.0522 210.021 39.8976 206.503 28.3374 202.913C25.0435 201.896 18.2989 199.879 15.0275 199.325C17.3971 202.145 22.5405 206.01 25.4601 208.198Z" fill="#005A8D"/>
<path d="M119.528 261.885C121.151 261.408 122.559 260.192 123.203 258.558C124.43 255.628 122.948 252.209 120.023 250.979C113.645 248.354 108.786 245.444 105.342 242.44L104.214 241.325C103.13 240.359 102.298 239.158 101.465 237.956C100.078 235.955 97.4308 235.125 95.2165 235.775C94.626 235.949 94.0355 236.122 93.5315 236.591C90.8819 238.493 90.3145 242.032 92.0225 244.582C93.1323 246.184 94.3897 247.742 95.9857 249.362C96.0289 249.51 96.454 249.867 96.454 249.867C101.112 254.281 107.351 258.071 115.743 261.551C117.079 262.283 118.347 262.232 119.528 261.885Z" fill="#89C9D3"/>
<path d="M97.3126 301.857C98.6145 300.55 99.2654 298.879 99.2654 296.991C99.2654 295.03 98.6145 293.432 97.3126 292.27C96.1553 290.89 94.5641 290.237 92.6112 290.237H30.4805C28.5276 290.237 26.8641 290.89 25.5621 292.198C24.4049 293.432 23.7539 295.03 23.7539 296.991C23.7539 298.879 24.3325 300.55 25.6345 301.857C26.9364 303.092 28.5276 303.673 30.4805 303.673H54.4214V376.374C54.4214 378.408 55.1447 380.078 56.519 381.458C57.8932 382.838 59.6291 383.564 61.582 383.564C63.6072 383.564 65.2708 382.838 66.645 381.458C68.0193 380.078 68.7426 378.335 68.7426 376.374V303.673H92.6112C94.4917 303.673 96.083 303.092 97.3126 301.857Z" fill="#005A8D"/>
<path d="M129.223 319.361C126.764 317.69 123.148 316.819 118.229 316.819C113.383 316.819 108.899 317.981 104.921 320.232C103.113 321.249 101.521 322.484 99.8578 324.081C99.7855 322.048 99.1345 320.45 98.0496 319.433C96.8923 318.199 95.1564 317.545 92.9142 317.545C90.7444 317.545 89.0085 318.199 87.8512 319.361C86.6939 320.523 86.043 322.338 86.043 324.445V376.592C86.043 378.843 86.6939 380.586 87.9235 381.894C89.1531 383.056 90.8167 383.564 92.9866 383.564C95.2288 383.564 96.9647 382.911 98.0496 381.749C99.2792 380.514 99.8578 378.771 99.8578 376.665V342.602C99.8578 339.333 100.87 336.646 102.896 334.54C105.066 332.361 108.031 330.836 111.72 330.037C115.481 329.238 119.821 329.311 124.594 330.255C125.752 330.545 126.837 330.545 127.849 330.4C128.934 330.182 129.802 329.746 130.598 329.093C131.466 328.294 132.044 327.204 132.334 325.97C132.84 324.154 132.695 321.539 129.223 319.361Z" fill="#005A8D"/>
<path d="M258.547 318.416C256.811 317.618 255.075 317.472 253.339 318.053C251.676 318.634 250.374 319.724 249.506 321.322L230.556 362.865L211.388 321.322C210.593 319.724 209.291 318.634 207.627 318.126C206.036 317.545 204.372 317.69 202.854 318.489C201.045 319.288 199.888 320.523 199.165 322.12C198.586 323.646 198.658 325.244 199.454 326.841L224.118 378.989C225.637 381.966 227.879 383.419 230.7 383.419C232.653 383.419 235.402 382.62 237.065 378.916L261.657 326.769C262.38 325.171 262.525 323.573 261.946 321.975C261.368 320.377 260.211 319.215 258.547 318.416Z" fill="#005A8D"/>
<path d="M360.605 371.653C359.448 370.346 357.929 369.62 356.048 369.62H353.155C351.853 369.62 350.84 368.893 349.973 367.368C348.96 365.698 348.526 363.519 348.526 360.832V297.209C348.526 295.175 347.875 293.505 346.573 292.198C345.199 290.89 343.535 290.237 341.51 290.237C339.485 290.237 337.821 290.89 336.519 292.198C335.217 293.505 334.566 295.175 334.566 297.209V360.904C334.566 365.262 335.362 369.184 336.881 372.597C338.472 375.938 340.642 378.626 343.391 380.659C346.211 382.62 349.466 383.637 353.3 383.637C355.831 383.637 358.001 382.983 359.665 381.749C361.4 380.441 362.341 378.698 362.341 376.665C362.413 374.631 361.834 372.96 360.605 371.653Z" fill="#005A8D"/>
<path d="M312.506 321.322C308.021 318.489 302.597 317.036 296.376 317.036C290.084 317.036 284.442 318.489 279.524 321.394C274.605 324.227 270.772 328.221 267.951 333.233C265.202 338.171 263.828 344.054 263.828 350.591C263.828 357.055 265.275 362.938 268.168 367.949C271.133 372.888 275.184 376.882 280.319 379.788C285.527 382.62 291.458 384 298.04 384C301.729 384 305.562 383.346 309.54 381.966C313.591 380.586 317.062 378.843 319.738 376.665C321.764 375.139 322.125 373.324 322.053 372.089C321.981 370.346 321.113 368.821 319.594 367.441C318.364 366.424 316.845 365.843 315.254 365.988C313.735 365.988 312.216 366.497 310.842 367.513C309.395 368.603 307.443 369.62 304.983 370.491C302.669 371.29 300.282 371.726 298.04 371.726C293.845 371.726 290.084 370.782 286.901 368.966C283.646 367.15 281.115 364.608 279.307 361.485C278.366 359.887 277.715 358.072 277.281 355.82H319.883C321.691 355.82 323.283 355.239 324.512 354.077C325.742 352.842 326.32 351.317 326.32 349.574C326.32 343.255 325.091 337.663 322.704 332.87C320.462 327.931 316.99 324.081 312.506 321.322ZM277.354 344.272C277.715 342.529 278.222 341.077 278.873 339.697C280.391 336.501 282.634 333.959 285.527 332.143C288.492 330.328 292.109 329.383 296.304 329.383C299.92 329.383 303.03 330.255 305.562 331.853C308.094 333.523 310.046 335.847 311.421 338.752C312.144 340.278 312.723 342.021 313.084 344.272H277.354Z" fill="#005A8D"/>
<path d="M182.313 321.539C177.323 318.562 171.681 317.036 165.461 317.036C159.24 317.036 153.526 318.562 148.536 321.539C143.617 324.445 139.567 328.439 136.601 333.523C133.708 338.607 132.262 344.345 132.262 350.664C132.262 356.982 133.564 362.72 136.24 367.731C138.916 372.67 142.677 376.737 147.306 379.715C148.897 380.732 153.02 382.402 153.237 382.475C156.347 383.492 161.555 384.145 167.631 383.71C170.307 383.419 172.911 383.056 175.153 382.184C177.54 381.385 178.48 379.788 178.769 378.553C179.203 376.882 178.914 375.139 177.901 373.324C177.106 371.944 175.804 370.927 174.285 370.564C172.838 370.055 171.247 370.128 169.656 370.564C166.039 371.508 161.7 371 159.964 370.491C158.373 370.055 156.926 369.402 155.479 368.603C152.586 366.787 150.199 364.245 148.463 361.195C146.8 358.072 145.932 354.44 145.932 350.518C145.932 346.524 146.8 342.965 148.463 339.842C150.199 336.719 152.586 334.177 155.479 332.434C158.445 330.618 161.844 329.674 165.461 329.674C169.15 329.674 172.549 330.618 175.442 332.434C178.335 334.177 180.65 336.646 182.313 339.842C183.977 342.892 184.917 346.524 184.845 350.518C184.628 364.608 184.7 378.553 184.7 376.592C184.7 378.553 185.351 380.223 186.653 381.676C188.027 382.983 189.402 383.637 191.355 383.637C193.38 383.637 195.043 382.983 196.345 381.676C197.72 380.296 198.443 378.553 198.443 376.592V350.591C198.443 344.272 196.924 338.535 194.031 333.451C191.21 328.439 187.232 324.445 182.313 321.539Z" fill="#005A8D"/>
</svg>
