<svg width="63" height="80" viewBox="0 0 63 80" fill="none" xmlns="http://www.w3.org/2000/svg">
<path d="M43.7728 5.42644L60.0576 12.4057C61.3708 12.9684 62.2222 14.2596 62.2222 15.6883V46.7503C62.2222 53.6706 58.8801 60.165 53.2487 64.1874L33.187 78.5173C31.9452 79.4042 30.277 79.4042 29.0353 78.5173L8.97347 64.1874C3.34212 60.165 0 53.6706 0 46.7503V15.6883C0 14.2596 0.851416 12.9684 2.16457 12.4057L18.4494 5.42644C26.5349 1.96123 35.6873 1.96122 43.7728 5.42644Z" fill="#005A8D"/>
<path fill-rule="evenodd" clip-rule="evenodd" d="M47.1931 21.8786C48.1109 22.7965 48.1109 24.2845 47.1931 25.2023L43.8694 28.5261C42.9516 29.4439 41.4635 29.4439 40.5457 28.5261C39.6279 27.6082 39.6279 26.1202 40.5457 25.2023L43.8694 21.8786C44.7872 20.9608 46.2753 20.9608 47.1931 21.8786Z" fill="white"/>
<path d="M40.4814 38.498C40.4814 43.69 36.2725 47.8989 31.0805 47.8989C25.8886 47.8989 21.6797 43.69 21.6797 38.498C21.6797 33.3061 25.8886 29.0972 31.0805 29.0972C36.2725 29.0972 40.4814 33.3061 40.4814 38.498Z" fill="white"/>
<path fill-rule="evenodd" clip-rule="evenodd" d="M31.0807 14.9956C32.3787 14.9956 33.4309 16.0478 33.4309 17.3458V22.0462C33.4309 23.3442 32.3787 24.3965 31.0807 24.3965C29.7827 24.3965 28.7305 23.3442 28.7305 22.0462V17.3458C28.7305 16.0478 29.7827 14.9956 31.0807 14.9956Z" fill="white"/>
<path fill-rule="evenodd" clip-rule="evenodd" d="M31.0807 52.5991C32.3787 52.5991 33.4309 53.6513 33.4309 54.9493V59.6498C33.4309 60.9477 32.3787 62 31.0807 62C29.7827 62 28.7305 60.9477 28.7305 59.6498V54.9493C28.7305 53.6513 29.7827 52.5991 31.0807 52.5991Z" fill="white"/>
<path fill-rule="evenodd" clip-rule="evenodd" d="M21.1111 48.47C22.0289 49.3878 22.0289 50.8758 21.1111 51.7937L17.7874 55.1174C16.8696 56.0352 15.3815 56.0352 14.4637 55.1174C13.5459 54.1995 13.5459 52.7115 14.4637 51.7937L17.7874 48.47C18.7052 47.5521 20.1933 47.5521 21.1111 48.47Z" fill="white"/>
<path fill-rule="evenodd" clip-rule="evenodd" d="M54.582 38.4977C54.582 39.7957 53.5298 40.8479 52.2318 40.8479L47.5314 40.8479C46.2334 40.8479 45.1812 39.7957 45.1812 38.4977C45.1812 37.1997 46.2334 36.1475 47.5314 36.1475L52.2318 36.1475C53.5298 36.1475 54.582 37.1997 54.582 38.4977Z" fill="white"/>
<path fill-rule="evenodd" clip-rule="evenodd" d="M16.9805 38.4977C16.9805 39.7957 15.9282 40.8479 14.6303 40.8479L9.92983 40.8479C8.63185 40.8479 7.57962 39.7957 7.57962 38.4977C7.57962 37.1997 8.63185 36.1475 9.92983 36.1475L14.6303 36.1475C15.9282 36.1475 16.9805 37.1997 16.9805 38.4977Z" fill="white"/>
<path fill-rule="evenodd" clip-rule="evenodd" d="M47.6975 55.1169C46.7797 56.0347 45.2916 56.0347 44.3738 55.1169L41.0501 51.7932C40.1323 50.8754 40.1323 49.3873 41.0501 48.4695C41.9679 47.5517 43.456 47.5517 44.3738 48.4695L47.6975 51.7932C48.6153 52.711 48.6153 54.1991 47.6975 55.1169Z" fill="white"/>
<path fill-rule="evenodd" clip-rule="evenodd" d="M21.1116 28.5256C20.1938 29.4434 18.7057 29.4434 17.7879 28.5256L14.4642 25.2019C13.5464 24.2841 13.5464 22.796 14.4642 21.8782C15.382 20.9604 16.8701 20.9604 17.7879 21.8782L21.1116 25.2019C22.0294 26.1197 22.0294 27.6078 21.1116 28.5256Z" fill="white"/>
</svg>
