<svg width="94" height="96" viewBox="0 0 94 96" fill="none" xmlns="http://www.w3.org/2000/svg">
<path fill-rule="evenodd" clip-rule="evenodd" d="M28.2494 14.335C25.7114 15.737 24.6551 17.3604 23.058 22.3135C18.7858 35.5639 16.9305 44.1449 16.8873 50.8511L16.8555 55.8412L19.1442 60.5871C22.3929 67.3232 24.5839 70.7612 26.293 71.8043C27.6887 72.6565 28.9568 72.7092 48.1888 72.7092C67.4208 72.7092 68.6889 72.6565 70.0846 71.8043C71.7828 70.7678 73.9785 67.3337 77.1778 60.7087C78.9757 56.9866 79.4538 55.4582 79.6289 52.8738C80.0054 47.3267 77.7176 36.0429 73.6277 23.272C71.7049 17.2682 70.7232 15.6947 68.0408 14.3151C66.6047 13.5765 29.5891 13.5951 28.2494 14.335ZM33.709 20.2571C30.4114 21.4048 29.6319 22.6205 27.5591 29.8457C25.822 35.8999 25.9901 37.4397 28.53 38.7547C30.5045 39.7769 65.8731 39.7769 67.8476 38.7547C70.3775 37.4449 70.5608 35.868 68.8555 30.0771C66.9831 23.7183 66.2501 22.1476 64.6454 21.0574C63.5018 20.2799 61.993 20.1886 48.9009 20.1036C40.937 20.0513 34.1007 20.1207 33.709 20.2571ZM30.0952 52.2674C28.3876 52.9584 27.0625 55.087 27.0625 57.141C27.0625 58.6504 27.3839 59.3471 28.6767 60.6412C30.8135 62.7803 33.4526 62.8977 35.6298 60.9502C40.0412 57.0042 35.6018 50.0404 30.0952 52.2674ZM40.4504 52.3719C39.6894 53.1338 39.6894 59.9745 40.4504 60.7363C41.247 61.5338 55.1306 61.5338 55.9272 60.7363C56.6882 59.9745 56.6882 53.1338 55.9272 52.3719C55.1306 51.5745 41.247 51.5745 40.4504 52.3719ZM61.8406 52.2664C61.2548 52.5155 60.3357 53.4218 59.7983 54.2801C57.6125 57.7703 60.0594 62.2571 64.1479 62.2571C66.9181 62.2571 69.3151 59.8576 69.3151 57.0845C69.3151 53.417 65.2688 50.8084 61.8406 52.2664ZM31.6462 77.3837C30.7233 78.4046 30.6265 79.8921 31.4302 80.6967C32.2463 81.5136 64.1313 81.5136 64.9474 80.6967C65.8537 79.7894 65.6096 78.0591 64.4617 77.2545C63.5592 76.6214 61.1684 76.5145 47.9191 76.5145C33.5182 76.5145 32.3769 76.5753 31.6462 77.3837Z" fill="#005A8D"/>
</svg>
