<svg width="76" height="73" viewBox="0 0 76 73" fill="none" xmlns="http://www.w3.org/2000/svg">
<path d="M24.8285 69.3067L58.3251 63.9127L51.1106 9.25581C50.6326 5.6348 47.4316 3.15001 43.9642 3.70838L23.0289 7.07967C19.5615 7.63804 17.1361 11.0289 17.614 14.6499L24.8285 69.3067ZM26.2767 15.4876L43.025 12.7906L43.6022 17.1632L26.8539 19.8602L26.2767 15.4876ZM69.5903 19.6764L74.2076 54.6568C74.6856 58.2778 72.2601 61.6687 68.7927 62.227L58.3251 63.9127L51.9763 15.8146L62.444 14.129C65.9114 13.5706 69.1123 16.0554 69.5903 19.6764ZM24.8285 69.3067L14.3608 70.9924C10.8934 71.5507 7.69247 69.066 7.2145 65.4449L2.59722 30.4646C2.11926 26.8435 4.54467 23.4527 8.01208 22.8943L18.4798 21.2087L24.8285 69.3067Z" fill="#005A8D"/>
<path d="M35.2968 30.2919L41.3981 53.0623C41.8576 54.7772 40.84 56.5398 39.1251 56.9993L16.3547 63.1006C14.6398 63.5601 12.8772 62.5424 12.4177 60.8276L6.31637 38.0572C5.85687 36.3423 6.87453 34.5797 8.58942 34.1202L31.3598 28.0189C33.0747 27.5594 34.8373 28.577 35.2968 30.2919ZM28.8837 35.3383L26.8137 35.8929C26.242 36.0461 25.9028 36.6336 26.056 37.2053L27.4426 42.3804L19.1625 44.599L17.7759 39.4239C17.6227 38.8523 17.0352 38.5131 16.4635 38.6663L14.3935 39.2209C13.8218 39.3741 13.4826 39.9616 13.6358 40.5333L17.5184 55.0235C17.6716 55.5951 18.2591 55.9344 18.8308 55.7812L20.9008 55.2265C21.4725 55.0733 21.8117 54.4858 21.6585 53.9142L20.2718 48.7391L28.552 46.5204L29.9386 51.6955C30.0918 52.2672 30.6793 52.6064 31.251 52.4532L33.321 51.8985C33.8927 51.7454 34.2319 51.1578 34.0787 50.5862L30.1961 36.096C30.0429 35.5243 29.4554 35.1851 28.8837 35.3383Z" fill="white"/>
<path d="M63.6441 28.1444C64.4048 27.7679 64.7848 27.6638 65.1459 27.7331C65.4116 27.7842 65.6537 27.8361 65.6837 27.8486C65.7138 27.8612 65.8924 28.0989 66.0807 28.377C66.3177 28.727 66.4445 29.1965 66.4927 29.902C66.6308 31.9232 66.3693 32.9009 65.0123 35.4371L63.9483 37.4254L65.5829 39.9419L67.2174 42.4585L67.5205 42.1265C68.0011 41.5999 68.4309 41.4548 69.0344 41.6149C69.7431 41.803 70.8223 42.5559 71.0608 43.0286C71.323 43.5483 71.2125 43.9602 70.4622 45.2596L69.7971 46.4116L70.6681 47.8078C71.1471 48.5756 71.5467 49.2864 71.5559 49.3871C71.5825 49.6786 70.2943 51.6767 70.035 51.7458C69.8548 51.794 68.8073 51.0091 64.9931 47.967C62.3452 45.8551 60.1287 44.1406 60.0675 44.1569C60.0064 44.1733 59.5862 44.7284 59.1339 45.3905C58.2405 46.6979 57.4218 47.7366 56.5347 48.6885C56.2227 49.0232 55.9322 49.3564 55.889 49.429C55.8459 49.5014 56.224 50.4863 56.7292 51.6175C57.4269 53.1795 57.6122 53.7358 57.4998 53.9307C57.4183 54.0718 56.9914 54.4453 56.551 54.7606C55.9055 55.223 55.699 55.3042 55.4846 55.1804C55.3385 55.0961 54.6852 54.4732 54.0329 53.7963C53.3806 53.1193 52.7726 52.5227 52.682 52.4703C52.5913 52.418 52.3037 52.5285 52.043 52.7162C51.7821 52.9038 51.4965 53.0456 51.4083 53.0313C51.0663 52.976 50.8563 52.5111 50.9561 52.0307C51.0129 51.7572 50.9938 51.4957 50.9137 51.4494C50.8335 51.4031 50.0189 51.1832 49.1031 50.9605C46.886 50.4215 46.8163 50.3625 46.9507 49.1394C47.019 48.5166 47.1405 48.0803 47.2874 47.9297C47.4385 47.7745 48.2547 47.6188 49.678 47.4733C50.8666 47.3519 51.8561 47.2212 51.877 47.1828C51.8978 47.1446 52.0245 46.7553 52.1583 46.3178C52.539 45.0741 53.028 43.8515 53.7461 42.3483C54.1099 41.5869 54.3965 40.9229 54.3831 40.8727C54.3696 40.8225 51.8671 39.8039 48.822 38.6091C45.7769 37.4143 43.2064 36.3913 43.1099 36.3355C42.7128 36.1063 42.764 35.6801 43.2993 34.7568C43.5854 34.263 43.9184 33.7604 44.0391 33.6396C44.1967 33.4821 44.7253 33.4438 45.9094 33.504L47.56 33.5879L48.2012 32.4774C49.2994 30.5753 49.9886 30.3509 51.5034 31.4024C52.4433 32.0549 52.674 32.4949 52.4717 33.2488L52.3164 33.8271L55.3192 33.9736L58.3219 34.1199L59.1375 32.7187C60.6065 30.1954 61.6595 29.1266 63.6441 28.1444Z" fill="white"/>
</svg>
